PathFileType	4	(X/Y/Z)	RBDS08\RBDS08runT45.trc
DataRate	CameraRate	NumFrames	NumMarkers	Units	OrigDataRate	OrigDataStartFrame	OrigNumFrames
150.000000	150.000000	4	33	mm	150.000000	3937	4500
Frame#	Time	L.ASIS			L.Heel.Bottom			L.Heel.Lateral			L.Heel.Top			L.Iliac.Crest			L.MT1			L.MT5			L.PSIS			L.Shank.Bottom.Lateral			L.Shank.Bottom.Medial			L.Shank.Top.Lateral			L.Shank.Top.Medial			L.Thigh.Bottom.Lateral			L.Thigh.Bottom.Medial			L.Thigh.Top.Lateral			L.Thigh.Top.Medial			R.ASIS			R.ASY			R.Heel.Bottom			R.Heel.Lateral			R.Heel.Top			R.Iliac.Crest			R.MT1			R.MT5			R.PSIS			R.Shank.Bottom.Lateral			R.Shank.Bottom.Medial			R.Shank.Top.Lateral			R.Shank.Top.Medial			R.Thigh.Bottom.Lateral			R.Thigh.Bottom.Medial			R.Thigh.Top.Lateral			R.Thigh.Top.Medial			
		X1	Y1	Z1	X2	Y2	Z2	X3	Y3	Z3	X4	Y4	Z4	X5	Y5	Z5	X6	Y6	Z6	X7	Y7	Z7	X8	Y8	Z8	X9	Y9	Z9	X10	Y10	Z10	X11	Y11	Z11	X12	Y12	Z12	X13	Y13	Z13	X14	Y14	Z14	X15	Y15	Z15	X16	Y16	Z16	X17	Y17	Z17	X18	Y18	Z18	X19	Y19	Z19	X20	Y20	Z20	X21	Y21	Z21	X22	Y22	Z22	X23	Y23	Z23	X24	Y24	Z24	X25	Y25	Z25	X26	Y26	Z26	X27	Y27	Z27	X28	Y28	Z28	X29	Y29	Z29	X30	Y30	Z30	X31	Y31	Z31	X32	Y32	Z32	X33	Y33	Z33	

3938	26.24666666666667	2248.369857969466	999.7479377222506	903.2455038537071	1489.652440217586	523.8940100068581	984.7536452511031	1501.802918984411	487.9578170986982	941.8343592618124	1538.164646606809	507.8580734523279	988.6988821539966	2206.580727196118	1084.806987706599	883.6099619627352	1497.401165795252	301.9320944172433	1042.182404115806	1474.147929251908	331.6131604908954	936.3002000154534	2085.867732879899	1056.680673474717	974.838254806042	1614.442723613179	466.0441658595721	936.6682658894451	1605.279132647253	503.3964746364549	971.3944390005951	1689.168942347534	494.6550319859542	921.2910826813439	1684.366568784825	532.0714649831318	959.1157694816501	2024.529513881625	650.518606392639	875.4794126919688	1970.850390715347	674.1234802232146	919.7059055121827	2052.858319147462	756.2268912912169	857.1930810950174	2004.993020869851	777.868264596	903.8257039064669	2246.928512689252	1015.724440670399	1121.763957195604	8771802322.381214	-7837960305.632212	-820358390.8321533	2424.55761107497	54.73401301099227	1038.347958077145	2444.811216653865	77.11521009570583	1081.096269732033	2414.691280450459	104.2202220387076	1041.882072486259	2192.492612955311	1081.890061925675	1172.1650439619	2622.452873820757	164.6659606342287	997.5533967784132	2598.941602709779	136.0441441086569	1100.990217245603	2090.589242422485	1055.626673859056	1077.290393383094	2438.084525940467	232.2011593626745	1100.305747842865	2405.942426810925	234.4051033500208	1056.073847470066	2416.59302889721	309.0529768974316	1116.406737248689	2388.8981902556	311.4620598074942	1070.217798383839	2372.129021672454	657.7219581501337	1161.131804737072	2321.213873755727	623.7473120109698	1121.589921042478	2299.308708244521	737.8614826881912	1184.54009533208	2250.936296223651	703.7243286617725	1149.23869499103	
3939	26.25333333333333	2249.087227963475	997.8481790556322	902.7475592988817	1500.4944232833	542.6856967507983	983.1521787299943	1511.002587612966	505.8997437819656	940.570254248214	1548.035727763819	523.8830574447672	987.392701552107	2205.019562275365	1082.899134844038	882.6095539377308	1495.151852320341	320.8513895537098	1041.573707769879	1474.6295798673	351.5350865604059	935.1998376886519	2085.785081553087	1052.68967944934	973.6399056941784	1621.803312001803	477.9930739766364	936.1373683353127	1614.380188309342	515.7517103338553	970.8956818780439	1698.047401978408	502.6438156253275	921.3889016867804	1694.881299741122	540.3193447590698	959.0736155558989	2032.275783012497	643.3737336752816	876.2967070507082	1978.388662374459	666.0478065614211	920.7035752676039	2058.496313957652	749.619624436499	857.6966489647181	2010.221672747872	770.4805852248106	904.2693499967091	2245.740179006966	1015.036489703078	1121.408724736594	8779838249.582829	-7845144772.252045	-821111676.1465657	2427.749198590302	44.94524346431722	1041.058469840356	2449.223280508253	67.62432449038693	1083.050155696781	2417.128612648961	94.25214920021948	1044.668703089682	2190.457140874053	1080.863692138757	1171.307227129757	2622.419900441829	158.7462478588172	993.275187699021	2602.842087650865	129.4557070831451	1097.647869067345	2090.007261030081	1052.354642757778	1076.19131424825	2439.174289856173	221.8396332048322	1101.990606317516	2405.29249665012	223.1517220580719	1058.667415421232	2415.807499428144	298.0800369057028	1118.799839895383	2386.306993866964	299.8235139588755	1073.29402364236	2364.17999599119	648.0366565907764	1161.549425566395	2312.477029747015	615.9335287156612	1121.382118036778	2293.781508837271	730.3789336563948	1184.729828539551	2244.598945104679	697.9730262968462	1148.769319109922	
3940	26.26	2249.963062256583	995.1691976775121	902.3914601956826	1513.892711570708	560.5516617572242	982.4623282217561	1522.368740196391	523.21548309269	939.9793952079037	1560.26912134264	538.9342252538289	986.5441660974562	2203.882777476888	1080.060380018139	881.4958218463617	1495.078496955608	339.132428989658	1040.233634409281	1476.888388770932	371.3369472405789	933.8818139740848	2085.855530583816	1047.922224394058	972.0722711546948	1630.854689499009	489.244728623438	935.6005863107956	1625.288948603158	527.1748295159308	970.5334456927653	1708.324612433469	509.9353702721529	921.4595630324108	1706.916905578466	547.6151388731895	959.1514752157079	2040.233637133421	635.6869188939954	877.0057016516184	1986.222844929127	657.3324504645061	921.7047498579852	2064.284738594033	742.4310090091711	858.2073634899052	2015.673825306753	762.4207439209421	904.8188139098745	2244.645512574327	1013.706176552948	1121.242074992773	8787879083.138514	-7852333627.822751	-821865422.4482942	2426.698998627173	36.79491366234262	1043.513970948069	2449.40507346269	59.56476402451472	1084.796403868436	2416.158773512965	85.92525226420247	1046.962915638024	2188.395360642162	1079.457971114094	1170.338198526956	2619.521690184918	151.2019703772535	990.0885784130601	2602.821291986137	121.9922181244251	1095.17781097261	2089.27367789221	1048.618328262301	1074.802169644879	2437.679797328018	212.0379842601565	1103.362233968033	2402.484337670352	212.6247536056696	1060.711292277511	2413.017703013881	287.818341878489	1120.696324752473	2382.123489013399	289.0122973962416	1075.703976387676	2356.595892031842	639.2113448787234	1162.016139291602	2304.176392774601	608.6348443923788	1121.556240395229	2288.542486887144	723.5235475435792	1184.981731955397	2238.5790463557	692.5985957082528	1148.717970879507	
3941	26.26666666666667	2250.958943749687	991.6985041008855	902.2168642430083	1529.535639217017	577.2581885342172	982.6307705884079	1535.756559552107	539.7135733214043	940.007384916628	1574.579945384569	552.8734725482652	986.2033777505692	2203.249813025024	1076.256789602975	880.3366417653104	1497.267286845756	356.6030197036741	1038.205536097692	1481.150871168657	390.8109355957957	932.314126808564	2086.044276031221	1042.4464295133	970.1987297721547	1641.537465202763	499.6964429214524	935.0980202760416	1637.903367748055	537.6014602062255	970.2972878686609	1719.958267643823	516.4261825886869	921.4984208213358	1720.389637739215	553.8942551793059	959.3092970042359	2048.342247746764	627.4792350924249	877.5864055873192	1994.273070820022	647.9879605586422	922.6740984287303	2070.151163652386	734.6872654737623	858.7187704510517	2021.257550195958	753.7050000123053	905.4572635781448	2243.647596157025	1011.660920722469	1121.30384800703	8795924824.545593	-7859526873.684513	-822619629.8783433	2421.286596135341	30.35616116732254	1045.508855495135	2445.178586621495	52.97136906586513	1086.169684319514	2411.688873027324	79.31263259136767	1048.54666245997	2186.362037243209	1077.529881783201	1169.341152257483	2613.810096267343	141.9996202066895	988.0639398900337	2598.77677803019	113.5803596253363	1093.641810205107	2088.354382857126	1044.453200599538	1073.158567733616	2433.551377876581	202.7993554699045	1104.284530369984	2397.497620709428	202.9106026343063	1062.049440529096	2408.207926104373	278.2997391525331	1121.982644793056	2376.366367485315	279.1326205917943	1077.326723081973	2349.504555824033	631.3061036054344	1162.544897827693	2296.444202299918	601.8924808889883	1122.103901864941	2283.615463255642	717.3086631881609	1185.324876255755	2232.922115501759	687.5885355382437	1149.069738424117	
